<svg width="72" height="72" viewBox="0 0 72 72" fill="none" xmlns="http://www.w3.org/2000/svg">
<mask id="mask0_21_589" style="mask-type:luminance" maskUnits="userSpaceOnUse" x="0" y="0" width="72" height="72">
<path d="M72 0H0V72H72V0Z" fill="white"/>
</mask>
<g mask="url(#mask0_21_589)">
<path d="M38.1023 25.97C38.1023 26.2102 37.9101 26.4264 37.6458 26.4264H35.6038C35.3635 26.4264 35.1473 26.2343 35.1473 25.97V24.8168C35.1473 24.5766 35.3395 24.3604 35.6038 24.3604H37.6458C37.8861 24.3604 38.1023 24.5766 38.1023 24.8168V25.97ZM40.4566 25.97V24.8168C40.4566 23.2793 39.2074 22.006 37.6458 22.006H35.6038C34.0662 22.006 32.793 23.2553 32.793 24.8168V25.97C32.793 27.5075 34.0422 28.7808 35.6038 28.7808H37.6458C39.2074 28.7808 40.4566 27.5315 40.4566 25.97ZM60.3245 18.5706H31.2074V16.4565H57.2494C58.6188 16.4565 59.82 17.2973 60.3245 18.5706ZM47.8801 14.1021H31.2074V8.24025L47.8801 14.1021ZM33.5137 61.3574C34.1143 61.3574 34.6188 61.8379 34.6188 62.4625V64.2162H16.4566V62.4625C16.4566 61.8619 16.9371 61.3574 17.5617 61.3574H33.5137ZM28.853 59.003H23.88L28.853 54.03V59.003ZM28.3966 51.1712L22.2464 57.3213V44.997L28.3966 51.1472V51.1712ZM28.853 48.3123L22.7269 42.1862L28.853 36.0601V48.3123ZM28.2764 33.2973L22.2224 39.3514V27.2192L28.2764 33.2733V33.2973ZM28.853 30.5345L22.2224 23.9039V20.9009H28.853V30.5345ZM28.853 18.5466H22.2224V16.4324H28.853V18.5466ZM26.9551 14.0781H22.2224V9.34536L26.9551 14.0781ZM28.853 12.6607L23.9521 7.75977H28.853V12.6607ZM31.2314 20.9009H41.9942V28.6607C41.9942 29.2373 41.5377 29.6937 40.9611 29.6937H31.2314V20.9009ZM19.868 18.5466H16.6008V16.4324H19.868V18.5466ZM19.868 14.0781H16.6008V13.021C16.6008 12.3964 16.3365 11.8439 15.9041 11.4595L19.868 8.79281V14.0781ZM14.2464 20.3724H11.4356V13.2613H14.2464V20.3724ZM62.8951 19.6997C62.8951 16.5766 60.3725 14.0781 57.2494 14.0541H54.9671L30.4146 5.42944C30.4146 5.42944 30.3665 5.42944 30.3425 5.42944H30.2945C30.2945 5.42944 30.2704 5.42944 30.2464 5.42944C30.2464 5.42944 30.1984 5.42944 30.1743 5.42944C30.1743 5.42944 30.1503 5.42944 30.1263 5.42944C30.1023 5.42944 30.0782 5.42944 30.0542 5.42944H21.0692C20.7329 5.42944 20.4206 5.57359 20.2284 5.7898L12.5407 10.9309H11.2674C10.0903 10.9309 9.15332 11.8919 9.15332 13.0451V20.6126C9.15332 21.7898 10.1143 22.7267 11.2674 22.7267H14.5347C15.6158 22.7267 16.4806 21.9339 16.6248 20.9009H19.9161V58.979H17.6098C15.7119 58.979 14.1503 60.5165 14.1503 62.4385V65.3694C14.1503 66.018 14.6788 66.5466 15.3275 66.5466H35.844C36.4927 66.5466 37.0212 66.018 37.0212 65.3694V62.4385C37.0212 60.5406 35.4837 58.979 33.5617 58.979H31.2314V51.3874C31.2554 51.2433 31.2554 51.0991 31.2314 50.955V32.0481H40.9852C42.859 32.0481 44.3725 30.5346 44.3725 28.6607V20.9009H53.6218V32.5285C53.6218 33.1772 54.1503 33.7057 54.799 33.7057C56.0482 33.7057 57.0812 34.7147 57.0812 35.988C57.0812 37.2613 56.0722 38.2703 54.799 38.2703C53.5257 38.2703 52.5167 37.2613 52.5167 35.988C52.5167 35.3394 51.9882 34.8108 51.3395 34.8108C50.6909 34.8108 50.1623 35.3394 50.1623 35.988C50.1623 38.5345 52.2284 40.6246 54.799 40.6246C56.8891 40.6246 58.7389 39.2072 59.2674 37.1652C59.9161 34.6907 58.4506 32.1682 55.9761 31.4955V20.9009H61.7419C62.3906 20.9009 62.9191 20.3724 62.9191 19.7237" fill="black"/>
</g>
</svg>
