<svg width="72" height="72" viewBox="0 0 72 72" fill="none" xmlns="http://www.w3.org/2000/svg">
<mask id="mask0_21_31" style="mask-type:luminance" maskUnits="userSpaceOnUse" x="0" y="0" width="72" height="72">
<path d="M72 0H0V72H72V0Z" fill="white"/>
</mask>
<g mask="url(#mask0_21_31)">
<path d="M17.97 16.3124C17.97 17.7538 16.8169 18.9069 15.3754 18.9069C13.934 18.9069 12.7808 17.7538 12.7808 16.3124C12.7808 14.8709 13.934 13.7178 15.3754 13.7178C16.8169 13.7178 17.97 14.8709 17.97 16.3124ZM20.3244 16.3124C20.3244 13.5736 18.1142 11.3634 15.3754 11.3634C12.6367 11.3634 10.4265 13.5736 10.4265 16.3124C10.4265 19.0511 12.6367 21.2613 15.3754 21.2613C18.1142 21.2613 20.3244 19.0511 20.3244 16.3124ZM59.2193 16.3124C59.2193 17.7538 58.0661 18.9069 56.6247 18.9069C55.1833 18.9069 54.0301 17.7538 54.0301 16.3124C54.0301 14.8709 55.1833 13.7178 56.6247 13.7178C58.0661 13.7178 59.2193 14.8709 59.2193 16.3124ZM61.5737 16.3124C61.5737 13.5736 59.3634 11.3634 56.6247 11.3634C53.886 11.3634 51.6757 13.5736 51.6757 16.3124C51.6757 19.0511 53.886 21.2613 56.6247 21.2613C59.3634 21.2613 61.5737 19.0511 61.5737 16.3124ZM57.8499 55.7838C59.4355 55.7838 60.8529 56.7928 61.3574 58.3063H52.6607C53.1652 56.7928 54.5827 55.7838 56.1683 55.7838H57.8499ZM50.1863 44.5646C49.7298 44.5646 49.2974 44.8289 49.1052 45.2613L46.1742 51.8199C45.91 52.3964 45.6698 52.997 45.4535 53.5496L45.3094 53.91C45.1652 54.2463 44.4926 54.2943 44.1562 54.2703C44.0361 54.2703 43.94 54.2703 43.8199 54.2703H43.7478C42.7628 54.2223 42.1142 53.958 41.8259 53.5015C41.2974 52.6367 41.8259 50.979 42.0421 50.4985L42.5706 49.2733C43.4595 47.2072 44.3004 45.0931 45.1172 43.0511C45.4295 42.2823 45.7418 41.5136 46.0301 40.7448C46.2703 40.1682 47.1833 40.0961 47.3034 40.0721H49.7538C52.0601 40.0721 53.91 38.2463 53.958 35.964C53.958 35.8439 53.958 35.7238 53.934 35.6036L53.3094 32.8889L57.4415 28.7568C57.898 28.3003 57.898 27.5556 57.4415 27.0991C56.9851 26.6427 56.2403 26.6427 55.7839 27.0991L51.5316 31.3514H44.5646C44.2283 30.4145 44.6367 30.0541 44.8289 29.91C45.1172 29.6697 45.5016 29.5256 45.8859 29.5256L47.3995 29.4775C49.7058 29.4295 51.8679 28.4685 53.5016 26.8589L54.6307 25.7298C54.895 25.4655 55.1832 25.2253 55.4956 25.0331C56.5286 24.3604 57.8019 23.976 59.2433 26.0661C60.0842 27.2913 60.5166 28.7328 60.5166 30.1982V41.946C60.5166 42.2823 60.4685 42.6427 60.3725 42.979C59.964 44.3484 58.931 44.6367 58.1382 44.6127H57.4655C56.9851 44.6127 56.4806 44.6127 56.0001 44.6127H50.2343L50.1863 44.5646ZM36.6848 54.2463H35.2914V33.7057H35.9881H36.6848V54.2463ZM27.4115 31.3033H20.4445L16.1923 27.0511C15.7358 26.5946 14.9911 26.5946 14.5346 27.0511C14.0782 27.5075 14.0782 28.2523 14.5346 28.7088L18.6667 32.8409L18.0421 35.5556C18.0181 35.6757 17.9941 35.7958 18.0181 35.94C18.0661 38.2223 19.94 40.0481 22.2223 40.0481H24.6727C24.6727 40.0481 25.7058 40.1442 25.946 40.7208C26.2583 41.4895 26.5706 42.2583 26.8589 43.0271C27.6757 45.0691 28.5166 47.1832 29.4055 49.2493L29.934 50.4505C30.1502 50.955 30.7028 52.5886 30.1502 53.4775C29.8619 53.958 29.2133 54.1982 28.2283 54.2463H28.1562C28.1562 54.2463 27.94 54.2463 27.8199 54.2463C27.4836 54.2703 26.8109 54.2463 26.6667 53.8859L26.5226 53.5256C26.2824 52.949 26.0661 52.3724 25.8019 51.7718L22.8709 45.2133C22.6788 44.7808 22.2703 44.5166 21.7899 44.5166H16.0241C15.5436 44.5166 15.0391 44.5166 14.5586 44.5166H13.8619C13.0691 44.5166 12.0361 44.2283 11.6277 42.8829C11.5316 42.5466 11.4835 42.2103 11.4835 41.8499V30.1021C11.4835 28.6127 11.916 27.1712 12.7568 25.97C14.1983 23.8799 15.4475 24.2643 16.5046 24.937C16.8169 25.1292 17.1052 25.3694 17.3694 25.6337L18.4986 26.7628C20.1082 28.3964 22.2944 29.3334 24.6007 29.3814L26.1142 29.4295C26.4986 29.4295 26.883 29.5736 27.1712 29.8139C27.3634 29.982 27.7719 30.3184 27.4355 31.2553M15.8559 55.7358C17.4415 55.7358 18.8589 56.7448 19.3634 58.2583H10.6667C11.1712 56.7448 12.5887 55.7358 14.1742 55.7358H15.8559ZM66.5466 21.2133C66.5466 20.5646 66.0421 20.0361 65.3935 20.0121C64.7448 20.0121 64.2163 20.5166 64.1923 21.1652L63.7118 42.3784C63.6637 43.3394 63.3995 44.2523 62.943 45.0931C61.958 46.8949 60.1562 47.8559 57.6097 47.952H50.4986L50.979 46.8949H55.9761C56.4565 46.8949 56.937 46.8949 57.4175 46.8949H58.1142C58.883 46.8949 59.6517 46.7268 60.3484 46.3904C61.4535 45.8379 62.2463 44.8529 62.6307 43.5796C62.7989 43.0271 62.871 42.4505 62.871 41.8739V30.1021C62.871 28.1562 62.2944 26.2343 61.1893 24.6247C59.3394 21.934 56.7929 21.3093 54.2463 22.943C53.7899 23.2313 53.3815 23.5676 52.9971 23.952L51.8679 25.0811C50.6667 26.2823 49.0571 26.979 47.3514 27.0271L45.8379 27.0751C44.925 27.0751 44.0361 27.4355 43.3154 28.0121C42.7868 28.4445 41.8499 29.5256 42.1622 31.2553H36.0121H29.8619C30.1742 29.5015 29.2133 28.4445 28.7088 28.0121C28.0121 27.4115 27.1232 27.0991 26.1863 27.0751L24.6727 27.0271C22.9911 26.979 21.3574 26.2823 20.1562 25.0811L19.0271 23.952C18.6427 23.5676 18.2343 23.2313 17.7778 22.943C15.2313 21.3093 12.7088 21.9099 10.8349 24.6247C9.7298 26.2343 9.15323 28.1562 9.15323 30.1021V41.8499C9.15323 42.4265 9.2253 43.003 9.39347 43.5556C9.77785 44.8529 10.5706 45.8139 11.6757 46.3664C12.3724 46.7027 13.1412 46.8709 13.91 46.8709H14.6067C15.0872 46.8709 15.5676 46.8709 16.0481 46.8709H21.0451L21.5256 47.928H14.4145C11.892 47.8319 10.1142 46.8949 9.1292 45.1412C8.64872 44.3003 8.36042 43.3394 8.31237 42.3784L7.8319 21.1652C7.8319 20.5166 7.27935 20.0121 6.6307 20.0121C5.98205 20.0121 5.47754 20.5646 5.47754 21.2133L5.95803 42.4024C6.0301 43.7478 6.39046 45.0451 7.0391 46.2223C7.97604 47.9039 9.89797 49.946 13.8379 50.2583V53.4054C10.6667 53.5736 8.1202 56.2163 8.1202 59.4355C8.1202 60.0841 8.64872 60.6127 9.29737 60.6127H20.7328C21.3815 60.6127 21.91 60.0841 21.91 59.4355C21.91 56.2163 19.3875 53.5736 16.1923 53.4054V50.3063H22.6067L23.7118 52.7568C23.952 53.2853 24.1682 53.8379 24.4085 54.4145L24.5526 54.7748C25.0091 55.952 26.1622 56.6006 27.6758 56.6006C27.7959 56.6006 27.916 56.6006 28.0361 56.6006C28.1322 56.6006 28.2283 56.6006 28.3004 56.6006H28.3724C30.1983 56.5286 31.4956 55.8799 32.2163 54.7027C33.4655 52.6367 32.2884 49.8739 32.1202 49.5136L31.5917 48.3124C30.7028 46.2703 29.8859 44.1802 29.0691 42.1622C28.7568 41.3934 28.4445 40.6247 28.1322 39.8559C27.4835 38.2223 25.7058 37.7418 24.7688 37.7178H22.2463C21.2373 37.7178 20.4445 36.925 20.3965 35.94L20.925 33.6577H32.9851V55.4235C32.9851 56.0721 33.5136 56.6006 34.1622 56.6006H37.91C38.5586 56.6006 39.0872 56.0721 39.0872 55.4235V33.6817H43.8679L51.1472 33.6577L51.6757 35.94C51.6277 36.925 50.8109 37.6937 49.8259 37.6937H47.3274C46.3905 37.7178 44.6127 38.1982 43.94 39.8319C43.6277 40.6006 43.3154 41.3934 43.0031 42.1622C42.1863 44.1802 41.3694 46.2943 40.4805 48.3124L39.952 49.5136C39.7839 49.8979 38.6067 52.6607 39.8559 54.7027C40.5767 55.8799 41.8739 56.5286 43.6998 56.6006H43.7718C43.7718 56.6006 43.964 56.6006 44.0361 56.6006C45.7178 56.7208 47.0151 56.0241 47.5196 54.7748L47.6637 54.3904C47.88 53.8139 48.0962 53.2853 48.3364 52.7328L49.4415 50.2823H55.8559V53.3814C52.6607 53.5496 50.1382 56.1922 50.1382 59.4115C50.1382 60.0601 50.6667 60.5886 51.3154 60.5886H62.7508C63.3995 60.5886 63.928 60.0601 63.928 59.4115C63.928 56.1922 61.4055 53.5496 58.2103 53.3814V50.2343C62.1262 49.922 64.0722 47.8799 65.0091 46.1982C65.6577 45.0211 66.0181 43.7238 66.0902 42.4024L66.5706 21.2133H66.5466Z" fill="black"/>
</g>
</svg>
