<svg width="72" height="72" viewBox="0 0 72 72" fill="none" xmlns="http://www.w3.org/2000/svg">
<g clip-path="url(#clip0_21_51)">
<path d="M39.7359 20.1081C39.7359 22.1742 38.0542 23.8318 36.0122 23.8318C33.9701 23.8318 32.2885 22.1501 32.2885 20.1081C32.2885 18.066 33.9701 16.3844 36.0122 16.3844C38.0783 16.3844 39.7359 18.066 39.7359 20.1081ZM41.826 20.1081C41.826 16.8889 39.2314 14.2943 36.0122 14.2943C32.793 14.2943 30.1984 16.8889 30.1984 20.1081C30.1984 23.3273 32.793 25.9219 36.0122 25.9219C39.2314 25.9219 41.826 23.3273 41.826 20.1081ZM48.1443 49.7057H44.3005V47.6877H48.1443V49.7057ZM48.1443 45.5976H43.2674C42.6909 45.5976 42.2344 46.054 42.2344 46.6306V49.7057H39.5437V47.0871C39.5437 46.5105 39.0873 46.054 38.5107 46.054H34.4987C33.9221 46.054 33.4656 46.5105 33.4656 47.0871V49.7057H29.4056V47.0871C29.4056 46.5105 28.9491 46.054 28.3726 46.054H23.856V41.8979H29.2855C29.862 41.8979 30.3185 41.4414 30.3185 40.8648V37.982H33.4416V40.5045C33.4416 41.0811 33.8981 41.5375 34.4746 41.5375H38.9671C39.5437 41.5375 40.0002 41.0811 40.0002 40.5045V37.982H42.4266V40.5045C42.4266 41.0811 42.8831 41.5375 43.4596 41.5375H48.0963V45.5976H48.1443ZM48.1443 39.4474H44.5407V37.982H48.1443V39.4474ZM37.9581 39.4474H35.5317V37.982H37.9581V39.4474ZM28.2524 39.8078H23.856V37.9579H28.2524V39.8078ZM23.856 48.1201H27.3395V49.6817H23.856V48.1201ZM35.5317 48.1201H37.4536V49.6817H35.5317V48.1201ZM50.2104 50.7387V36.9489C50.2104 36.3724 49.7539 35.9159 49.1774 35.9159H22.823C22.2464 35.9159 21.79 36.3724 21.79 36.9489V50.7387C21.79 51.3153 22.2464 51.7718 22.823 51.7718H49.1774C49.7539 51.7718 50.2104 51.3153 50.2104 50.7387ZM60.9251 46.8709C60.9251 51.6036 56.6488 55.4234 51.3635 55.4234H18.811V39.0871C18.811 38.7748 18.6668 38.4865 18.4506 38.2943C18.0182 37.9339 17.3455 37.982 16.9852 38.4144C15.9041 39.7117 14.871 40.3603 13.9101 40.3603C13.0212 40.3603 12.0602 39.8078 11.0753 38.7027V29.7177C11.0753 24.985 15.3515 21.1411 20.6368 21.1411H23.6158V22.006C23.6158 22.5826 24.0722 23.039 24.6488 23.039H26.4506C26.6428 23.6396 26.8831 24.2162 27.1714 24.7447L25.8981 26.018C25.4897 26.4264 25.4897 27.0751 25.8981 27.4835L28.5888 30.1742C28.9972 30.5826 29.6458 30.5826 30.0542 30.1742L31.3275 28.8769C31.8801 29.1651 32.4566 29.4054 33.0332 29.5976V31.4234C33.0332 32 33.4897 32.4564 34.0662 32.4564H37.8861C38.4626 32.4564 38.9191 32 38.9191 31.4234V29.5976C39.5197 29.4054 40.0963 29.1651 40.6248 28.8769L41.8981 30.1501C42.3065 30.5585 42.9551 30.5585 43.3635 30.1501L46.0542 27.4594C46.4626 27.051 46.4626 26.4024 46.0542 25.994L44.781 24.7207C45.0692 24.1681 45.3095 23.5916 45.5017 23.015H47.3275C47.9041 23.015 48.3605 22.5585 48.3605 21.982V21.1171H53.1173V37.4775C53.1173 37.7898 53.2614 38.0781 53.4777 38.2703C53.9101 38.6306 54.5828 38.5826 54.9431 38.1501C56.0242 36.8528 57.0572 36.2042 58.0182 36.2042C58.9071 36.2042 59.868 36.7567 60.853 37.8618V46.8468L60.9251 46.8709ZM60.9251 35.0991C59.9882 34.4504 59.0512 34.1381 58.0903 34.1381C57.1293 34.1381 56.1683 34.4745 55.2554 35.0991V14.3904C58.4747 14.8468 60.9491 17.3213 60.9491 20.3243V35.0991H60.9251ZM46.3185 20.973H44.7569C44.2765 20.973 43.844 21.3093 43.7479 21.7898C43.5557 22.7027 43.1954 23.5916 42.6668 24.3603C42.4026 24.7688 42.4506 25.3213 42.811 25.6576L43.9161 26.7627L42.6909 27.988L41.5617 26.8588C41.2254 26.5225 40.6728 26.4504 40.2644 26.7147C39.4716 27.2192 38.6068 27.5796 37.6939 27.7958C37.2134 27.8919 36.8771 28.3243 36.8771 28.8048V30.3904H35.1473V28.8048C35.1473 28.3243 34.811 27.8919 34.3305 27.7958C33.4176 27.6036 32.5527 27.2432 31.7599 26.7147C31.3515 26.4504 30.799 26.4985 30.4626 26.8588L29.3575 27.9639L28.1323 26.7387L29.2374 25.6336C29.5737 25.2973 29.6458 24.7447 29.3816 24.3363C28.8771 23.5435 28.5167 22.6787 28.3005 21.7657C28.2044 21.2853 27.7719 20.9489 27.2915 20.9489H25.7059V19.2192H27.2915C27.7719 19.2192 28.2044 18.8829 28.3005 18.4024C28.4927 17.4895 28.853 16.6246 29.3575 15.8318C29.6218 15.4234 29.5737 14.8709 29.2134 14.5345L28.1083 13.4294L29.3335 12.2042L30.4386 13.3093C30.7749 13.6456 31.3275 13.7177 31.7359 13.4534C32.5287 12.9489 33.3936 12.5886 34.3065 12.3724C34.787 12.2763 35.1233 11.8438 35.1233 11.3633V9.77776H36.853V11.3633C36.853 11.8438 37.1894 12.2763 37.6698 12.3724C38.5828 12.5645 39.4476 12.9249 40.2404 13.4294C40.6488 13.6937 41.2014 13.6456 41.5377 13.2853L42.6428 12.1802L43.868 13.4054L42.7629 14.5105C42.4266 14.8468 42.3545 15.3994 42.6188 15.8078C43.1233 16.6006 43.4837 17.4654 43.6999 18.4024C43.796 18.8829 44.2284 19.2192 44.7089 19.2192H46.2945V20.9489L46.3185 20.973ZM11.0512 41.4655C11.9882 42.1141 12.9251 42.4264 13.8861 42.4264C14.847 42.4264 15.808 42.0901 16.7209 41.4655V56.4564V62.1742C13.5017 61.7177 11.0272 59.2432 11.0272 56.2402V41.4655H11.0512ZM62.9912 46.8709V20.1081C62.9912 20.1081 62.9912 20.012 62.9912 19.9639C62.799 15.6877 58.9311 12.2522 54.1984 12.2522C53.6218 12.2522 53.1653 12.7087 53.1653 13.2853V19.051H48.4086V18.1862C48.4086 17.6096 47.9521 17.1531 47.3756 17.1531H45.5497C45.3575 16.5525 45.1173 15.976 44.829 15.4474L46.1023 14.1742C46.5107 13.7657 46.5107 13.1171 46.1023 12.7087L43.4116 10.018C43.0032 9.60959 42.3545 9.60959 41.9461 10.018L40.6729 11.3153C40.1203 11.027 39.5437 10.7868 38.9671 10.5946V8.76875C38.9671 8.19217 38.5107 7.73572 37.9341 7.73572H34.1143C33.5377 7.73572 33.0813 8.19217 33.0813 8.76875V10.5946C32.4807 10.7868 31.9041 11.027 31.3756 11.3153L30.1023 10.018C29.6939 9.60959 29.0452 9.60959 28.6368 10.018L25.9461 12.7087C25.5377 13.1171 25.5377 13.7657 25.9461 14.1742L27.2194 15.4474C26.9311 16 26.6909 16.5766 26.4987 17.1531H24.6728C24.0963 17.1531 23.6398 17.6096 23.6398 18.1862V19.051H20.6608C14.2464 19.051 9.0332 23.8318 9.0332 29.6937V56.4564C9.0332 56.4564 9.0332 56.5525 9.0332 56.5766C9.2254 60.8769 13.0933 64.3123 17.826 64.3123C18.4026 64.3123 18.859 63.8558 18.859 63.2793V57.4895H51.4116C57.826 57.4895 63.0392 52.7087 63.0392 46.8468" fill="black"/>
</g>
<defs>
<clipPath id="clip0_21_51">
<rect width="72" height="72" fill="white"/>
</clipPath>
</defs>
</svg>
