<svg width="111" height="53" viewBox="0 0 111 53" fill="none" xmlns="http://www.w3.org/2000/svg">
<g clip-path="url(#clip0_1_127)">
<path d="M77.0866 21.6315C76.2751 20.2376 75.1793 19.028 73.8698 18.0807C74.0699 17.8 74.2539 17.5134 74.424 17.2168C75.3126 15.6839 75.833 13.9673 75.9447 12.2011C76.0564 10.435 75.7563 8.66702 75.0678 7.03533C74.3793 5.40363 73.3211 3.95234 71.9758 2.79478C70.6304 1.63721 69.0344 0.804702 67.3122 0.36224C66.7104 0.207601 66.0969 0.102428 65.4778 0.0477673C65.1397 0.0159211 64.7856 0 64.4275 0H44.9067V38.8503H67.0922C68.8488 38.8557 70.583 38.4573 72.1594 37.686C72.4055 37.5665 72.6415 37.4411 72.8596 37.3138C75.5096 35.7912 77.4434 33.2839 78.2357 30.343C79.028 27.4022 78.6139 24.2687 77.0846 21.6315H77.0866ZM69.6988 30.9445C68.9438 31.4928 68.0329 31.7877 67.0982 31.7865H52.0085V22.9571H67.0942C68.031 22.9576 68.9436 23.2532 69.7011 23.8016C70.4586 24.3499 71.0222 25.1229 71.3109 26.0096C71.5997 26.8963 71.5989 27.8512 71.3085 28.7374C71.0182 29.6235 70.4533 30.3955 69.6948 30.9425L69.6988 30.9445ZM66.6481 15.3021C65.975 15.6921 65.2103 15.8981 64.4315 15.8992H52.0085V7.06985H64.4315C65.4082 7.07017 66.3575 7.3911 67.1322 7.98288C67.9069 8.57466 68.4637 9.40424 68.7162 10.3429C68.9688 11.2816 68.903 12.277 68.5291 13.1747C68.1551 14.0724 67.494 14.8223 66.6481 15.3081V15.3021Z" fill="#003328"/>
<path d="M32.4835 0V22.0674C30.7797 22.5614 29.1421 23.2585 27.6063 24.1434C27.4723 24.219 27.3362 24.2966 27.2062 24.3782C26.0787 25.0592 25.0143 25.8386 24.0254 26.707C23.6253 27.0653 23.2252 27.4395 22.8572 27.8117C22.5751 28.0943 22.307 28.3809 22.057 28.6655C21.325 29.4875 20.6563 30.3631 20.0565 31.2849C19.4563 30.3639 18.7876 29.489 18.056 28.6675C17.8059 28.3809 17.5358 28.0943 17.2558 27.8196C16.8837 27.4395 16.4876 27.0653 16.0815 26.711C15.0922 25.8404 14.0271 25.0591 12.8987 24.3763C12.7667 24.2966 12.6307 24.219 12.4986 24.1454C10.9609 23.2596 9.3213 22.5619 7.61542 22.0674V0H0.533691V28.2635H1.42191C3.13522 28.26 4.83638 28.5496 6.45114 29.1194C8.8393 29.9637 10.9769 31.3897 12.6687 33.2673C12.8847 33.5088 13.0848 33.747 13.2688 33.9819C14.2928 35.2711 15.0958 36.7197 15.6454 38.2692L15.8454 38.8663H24.2475L24.4475 38.2692C24.9972 36.7197 25.8002 35.2711 26.8241 33.9819L26.8941 33.8943C27.0722 33.6734 27.2522 33.4624 27.4323 33.2653C27.8044 32.8493 28.2005 32.4552 28.6186 32.085C30.0839 30.7782 31.7925 29.77 33.6478 29.1174C35.2622 28.549 36.9625 28.2602 38.675 28.2635H39.5632V0H32.4835Z" fill="#003328"/>
<path d="M89.2774 31.7865V0H82.1797V38.8503H96.1411H110.577V31.7865H89.2774Z" fill="#003328"/>
<path d="M3.50873 52.9163H2.28043L0.5 48.3384H1.61827L2.89459 51.8594L4.16489 48.3384H5.28117L3.50873 52.9163Z" fill="#003328"/>
<path d="M9.58639 52.9163H6.32959V48.3384H9.58639V49.1962H7.30983V50.1636H9.53837V51.0214H7.30983V52.0584H9.58639V52.9163Z" fill="#003328"/>
<path d="M14.6991 52.9164H13.5728L12.6706 51.2902H11.9524V52.9164H10.9722V48.3385H13.1247C13.331 48.3278 13.5373 48.3588 13.7312 48.4297C13.9251 48.5005 14.1026 48.6096 14.253 48.7505C14.3921 48.8897 14.501 49.0559 14.573 49.2387C14.6449 49.4215 14.6783 49.6171 14.6711 49.8133C14.6864 50.1431 14.582 50.4674 14.377 50.7269C14.1962 50.9513 13.9445 51.1084 13.6628 51.1728L14.6991 52.9164ZM12.9807 50.4324C13.1614 50.4392 13.3383 50.3789 13.4768 50.2632C13.538 50.2052 13.5868 50.1354 13.6201 50.0581C13.6534 49.9807 13.6706 49.8975 13.6706 49.8133C13.6706 49.7292 13.6534 49.646 13.6201 49.5686C13.5868 49.4913 13.538 49.4215 13.4768 49.3635C13.3381 49.2483 13.1612 49.1887 12.9807 49.1963H11.9524V50.4324H12.9807Z" fill="#003328"/>
<path d="M20.1489 52.9163H19.2047L17.0042 49.9307V52.9163H16.0239V48.3384H17.0242L19.1547 51.2145V48.3384H20.1349L20.1489 52.9163Z" fill="#003328"/>
<path d="M25.9726 52.9163H24.8543L24.5702 52.14H22.5977L22.3077 52.9163H21.1914L22.9698 48.3384H24.1981L25.9726 52.9163ZM24.3022 51.2762L23.584 49.3057L22.8678 51.2762H24.3022Z" fill="#003328"/>
<path d="M29.0127 52.998C28.3649 53.017 27.736 52.7793 27.2643 52.3371C26.8154 51.8817 26.564 51.2693 26.564 50.6314C26.564 49.9935 26.8154 49.3811 27.2643 48.9256C27.4975 48.706 27.772 48.5344 28.072 48.4206C28.3721 48.3069 28.6918 48.2532 29.0127 48.2628C29.4076 48.2474 29.7986 48.3444 30.1399 48.5426C30.4812 48.7408 30.7585 49.0318 30.9392 49.3814L30.097 49.7934C29.9931 49.598 29.8392 49.4332 29.6509 49.3157C29.4626 49.1881 29.2406 49.1188 29.0127 49.1167C28.8199 49.1114 28.6282 49.1466 28.45 49.22C28.2718 49.2934 28.1111 49.4033 27.9785 49.5427C27.7168 49.8413 27.5726 50.2242 27.5726 50.6204C27.5726 51.0167 27.7168 51.3996 27.9785 51.6982C28.1108 51.838 28.2714 51.9482 28.4497 52.0216C28.628 52.095 28.8199 52.13 29.0127 52.1242C29.239 52.1255 29.4608 52.0612 29.6509 51.9391C29.8406 51.8275 29.9967 51.6673 30.103 51.4753L30.9452 51.8734C30.7624 52.2231 30.484 52.5142 30.1421 52.7132C29.8002 52.9122 29.4086 53.0109 29.0127 52.998Z" fill="#003328"/>
<path d="M35.7703 52.4844C35.4183 52.8268 34.9021 52.998 34.222 52.998C33.5418 52.998 33.0217 52.8268 32.6736 52.4805C32.494 52.2968 32.3544 52.0783 32.2635 51.8386C32.1727 51.5989 32.1325 51.3431 32.1455 51.0872V48.3345H33.1457V51.0514C33.1381 51.1945 33.1591 51.3376 33.2075 51.4726C33.2559 51.6075 33.3308 51.7316 33.4278 51.8375C33.5335 51.9389 33.6592 52.0172 33.7969 52.0676C33.9347 52.1179 34.0815 52.1393 34.228 52.1302C34.3745 52.1401 34.5216 52.1192 34.6594 52.0688C34.7973 52.0184 34.923 51.9396 35.0282 51.8375C35.1248 51.7314 35.1993 51.6073 35.2473 51.4724C35.2954 51.3374 35.3161 51.1943 35.3082 51.0514V48.3345H36.3085V51.0772C36.3215 51.3361 36.2804 51.5948 36.1878 51.837C36.0952 52.0792 35.953 52.2997 35.7703 52.4844Z" fill="#003328"/>
<path d="M40.7475 52.9163H37.8228V48.3384H38.803V52.0584H40.7475V52.9163Z" fill="#003328"/>
<path d="M46.3432 52.9163H45.2269L44.9428 52.14H42.9704L42.6803 52.9163H41.562L43.3424 48.3384H44.5707L46.3432 52.9163ZM44.6748 51.2822L43.9566 49.3117L43.2384 51.2822H44.6748Z" fill="#003328"/>
<path d="M51.118 52.9164H49.9918L49.0895 51.2902H48.3714V52.9164H47.3911V48.3385H49.5436C49.7499 48.3278 49.9562 48.3588 50.1501 48.4297C50.344 48.5005 50.5215 48.6096 50.6719 48.7505C50.8111 48.8897 50.92 49.0559 50.9919 49.2387C51.0638 49.4215 51.0972 49.6171 51.09 49.8133C51.1054 50.1431 51.001 50.4674 50.7959 50.7269C50.6155 50.9517 50.3637 51.1089 50.0818 51.1728L51.118 52.9164ZM49.3996 50.4324C49.5804 50.4392 49.7572 50.3789 49.8957 50.2632C49.957 50.2052 50.0057 50.1354 50.0391 50.0581C50.0724 49.9807 50.0896 49.8975 50.0896 49.8133C50.0896 49.7292 50.0724 49.646 50.0391 49.5686C50.0057 49.4913 49.957 49.4215 49.8957 49.3635C49.757 49.2483 49.5801 49.1887 49.3996 49.1963H48.3714V50.4324H49.3996Z" fill="#003328"/>
<path d="M57.3336 52.9165H54.835V48.3386H57.2576C57.4347 48.328 57.6122 48.3524 57.7797 48.4105C57.9473 48.4686 58.1016 48.5591 58.2338 48.6769C58.3461 48.7836 58.4351 48.9122 58.495 49.0547C58.5549 49.1972 58.5845 49.3505 58.5819 49.505C58.5906 49.7579 58.5099 50.0058 58.3538 50.2056C58.2885 50.1788 58.2173 50.1692 58.1472 50.1777C58.0771 50.1862 58.0103 50.2124 57.9533 50.254C57.8963 50.2955 57.851 50.351 57.8218 50.415C57.7925 50.479 57.7803 50.5494 57.7863 50.6194C57.7922 50.6894 57.8162 50.7568 57.8559 50.815C57.8956 50.8731 57.9496 50.9202 58.0128 50.9516C58.0761 50.983 58.1463 50.9977 58.2169 50.9942C58.2875 50.9908 58.356 50.9694 58.4158 50.9321C58.5853 51.1448 58.6757 51.4091 58.6719 51.6805C58.6774 51.8442 58.649 52.0074 58.5885 52.1598C58.5279 52.3121 58.4364 52.4505 58.3198 52.5662C58.1876 52.6876 58.0321 52.7813 57.8626 52.8415C57.6931 52.9017 57.5132 52.9272 57.3336 52.9165ZM57.0435 50.1717C57.116 50.1767 57.1888 50.1671 57.2576 50.1435C57.3263 50.1199 57.3896 50.0828 57.4436 50.0344C57.4922 49.9885 57.5304 49.9328 57.5556 49.871C57.5807 49.8092 57.5924 49.7427 57.5896 49.6761C57.5916 49.6091 57.5795 49.5424 57.554 49.4804C57.5285 49.4183 57.4902 49.3623 57.4416 49.3159C57.3353 49.2195 57.1952 49.1687 57.0515 49.1745H55.8232V50.1697L57.0435 50.1717ZM57.0775 52.0726C57.2349 52.0815 57.39 52.0311 57.5116 51.9313C57.5668 51.8812 57.6098 51.8194 57.6375 51.7505C57.6653 51.6815 57.6769 51.6072 57.6717 51.5332C57.6729 51.4622 57.6594 51.3918 57.6318 51.3263C57.6043 51.2609 57.5633 51.2019 57.5116 51.153C57.4535 51.0994 57.3851 51.058 57.3105 51.0313C57.2359 51.0046 57.1566 50.9932 57.0775 50.9977H55.8152V52.0726H57.0775Z" fill="#003328"/>
<path d="M63.6556 52.4844C63.3055 52.8268 62.7874 52.998 62.1072 52.998C61.427 52.998 60.9069 52.8268 60.5588 52.4805C60.3792 52.2968 60.2396 52.0783 60.1488 51.8386C60.0579 51.5989 60.0177 51.3431 60.0307 51.0872V48.3345H61.031V51.0514C61.0233 51.1945 61.0444 51.3376 61.0928 51.4726C61.1412 51.6075 61.2161 51.7316 61.313 51.8375C61.5361 52.0271 61.8199 52.1312 62.1132 52.1312C62.4066 52.1312 62.6903 52.0271 62.9134 51.8375C63.0094 51.7311 63.0833 51.6069 63.1311 51.472C63.1788 51.3371 63.1993 51.1942 63.1915 51.0514V48.3345H64.1917V51.0772C64.205 51.3359 64.1642 51.5946 64.072 51.8368C63.9797 52.079 63.8379 52.2995 63.6556 52.4844Z" fill="#003328"/>
<path d="M66.6877 52.9163H65.7114V48.3384H66.6917L66.6877 52.9163Z" fill="#003328"/>
<path d="M71.1449 52.9163H68.2202V48.3384H69.1985V52.0584H71.1449V52.9163Z" fill="#003328"/>
<path d="M74.2637 52.9163H72.4492V48.3384H74.2637C74.9115 48.3112 75.5442 48.5378 76.0261 48.9693C76.4582 49.4146 76.6997 50.0094 76.6997 50.6283C76.6997 51.2472 76.4582 51.842 76.0261 52.2873C75.5441 52.7185 74.9113 52.9444 74.2637 52.9163ZM74.2637 52.0584C74.4581 52.0679 74.6523 52.0361 74.8334 51.965C75.0145 51.894 75.1783 51.7853 75.3139 51.6464C75.5773 51.3742 75.7212 51.0091 75.714 50.6313C75.7295 50.2509 75.5936 49.8797 75.3359 49.5983C75.1971 49.4611 75.0307 49.3547 74.8476 49.2861C74.6645 49.2175 74.4689 49.1882 74.2737 49.2002H73.4375V52.0624L74.2637 52.0584Z" fill="#003328"/>
<path d="M83.3339 52.9163H80.4092V48.3384H81.3894V52.0584H83.3339V52.9163Z" fill="#003328"/>
<path d="M85.6184 52.9163H84.6382V48.3384H85.6184V52.9163Z" fill="#003328"/>
<path d="M92.1386 52.9163H91.1524V49.7098L89.8541 52.9163H89.426L88.1297 49.7098V52.9163H87.1494V48.3384H88.5178L89.634 51.105L90.7523 48.3384H92.1326L92.1386 52.9163Z" fill="#003328"/>
<path d="M94.6492 52.9163H93.6689V48.3384H94.6492V52.9163Z" fill="#003328"/>
<path d="M98.23 52.9163H97.2438V49.1962H95.8975V48.3384H99.5684V49.1962H98.23V52.9163Z" fill="#003328"/>
<path d="M104.073 52.9163H100.816V48.3384H104.073V49.1962H101.797V50.1636H104.025V51.0214H101.797V52.0584H104.073V52.9163Z" fill="#003328"/>
<path d="M107.274 52.9163H105.459V48.3384H107.274C107.922 48.3109 108.555 48.5374 109.036 48.9694C109.471 49.4132 109.715 50.0085 109.715 50.6284C109.715 51.2482 109.471 51.8435 109.036 52.2873C108.554 52.7178 107.921 52.9436 107.274 52.9163ZM107.274 52.0585C107.469 52.0679 107.663 52.036 107.845 51.965C108.026 51.8939 108.19 51.7854 108.326 51.6465C108.59 51.3742 108.733 51.0091 108.726 50.6314C108.741 50.2507 108.604 49.8796 108.346 49.5983C108.207 49.4612 108.041 49.3548 107.858 49.2862C107.675 49.2176 107.479 49.1883 107.284 49.2003H106.45V52.0624L107.274 52.0585Z" fill="#003328"/>
</g>
<defs>
<clipPath id="clip0_1_127">
<rect width="110.077" height="53" fill="white" transform="translate(0.5)"/>
</clipPath>
</defs>
</svg>
