<svg width="111" height="53" viewBox="0 0 111 53" fill="none" xmlns="http://www.w3.org/2000/svg">
<g clip-path="url(#clip0_1_244)">
<path d="M76.5866 21.6315C75.7751 20.2376 74.6793 19.028 73.3698 18.0807C73.5699 17.8 73.7539 17.5134 73.924 17.2168C74.8126 15.6839 75.333 13.9673 75.4447 12.2011C75.5564 10.435 75.2563 8.66702 74.5678 7.03533C73.8793 5.40363 72.8211 3.95234 71.4758 2.79478C70.1304 1.63721 68.5344 0.804702 66.8122 0.36224C66.2104 0.207601 65.5969 0.102428 64.9778 0.0477673C64.6397 0.0159211 64.2856 0 63.9275 0H44.4067V38.8503H66.5922C68.3488 38.8557 70.083 38.4573 71.6594 37.686C71.9055 37.5665 72.1415 37.4411 72.3596 37.3138C75.0096 35.7912 76.9434 33.2839 77.7357 30.343C78.528 27.4022 78.1139 24.2687 76.5846 21.6315H76.5866ZM69.1988 30.9445C68.4438 31.4928 67.5329 31.7877 66.5982 31.7865H51.5085V22.9571H66.5942C67.531 22.9576 68.4436 23.2532 69.2011 23.8016C69.9586 24.3499 70.5222 25.1229 70.8109 26.0096C71.0997 26.8963 71.0989 27.8512 70.8085 28.7374C70.5182 29.6235 69.9533 30.3955 69.1948 30.9425L69.1988 30.9445ZM66.1481 15.3021C65.475 15.6921 64.7103 15.8981 63.9315 15.8992H51.5085V7.06985H63.9315C64.9082 7.07017 65.8575 7.3911 66.6322 7.98288C67.4069 8.57466 67.9637 9.40424 68.2162 10.3429C68.4688 11.2816 68.403 12.277 68.0291 13.1747C67.6551 14.0724 66.994 14.8223 66.1481 15.3081V15.3021Z" fill="white"/>
<path d="M31.9835 0V22.0674C30.2797 22.5614 28.6421 23.2585 27.1063 24.1434C26.9723 24.219 26.8362 24.2966 26.7062 24.3782C25.5787 25.0592 24.5143 25.8386 23.5254 26.707C23.1253 27.0653 22.7252 27.4395 22.3572 27.8117C22.0751 28.0943 21.807 28.3809 21.557 28.6655C20.825 29.4875 20.1563 30.3631 19.5565 31.2849C18.9563 30.3639 18.2876 29.489 17.556 28.6675C17.3059 28.3809 17.0358 28.0943 16.7558 27.8196C16.3837 27.4395 15.9876 27.0653 15.5815 26.711C14.5922 25.8404 13.5271 25.0591 12.3987 24.3763C12.2667 24.2966 12.1307 24.219 11.9986 24.1454C10.4609 23.2596 8.8213 22.5619 7.11542 22.0674V0H0.0336914V28.2635H0.921909C2.63522 28.26 4.33638 28.5496 5.95114 29.1194C8.3393 29.9637 10.4769 31.3897 12.1687 33.2673C12.3847 33.5088 12.5848 33.747 12.7688 33.9819C13.7928 35.2711 14.5958 36.7197 15.1454 38.2692L15.3454 38.8663H23.7475L23.9475 38.2692C24.4972 36.7197 25.3002 35.2711 26.3241 33.9819L26.3941 33.8943C26.5722 33.6734 26.7522 33.4624 26.9323 33.2653C27.3044 32.8493 27.7005 32.4552 28.1186 32.085C29.5839 30.7782 31.2925 29.77 33.1478 29.1174C34.7622 28.549 36.4625 28.2602 38.175 28.2635H39.0632V0H31.9835Z" fill="white"/>
<path d="M88.7774 31.7865V0H81.6797V38.8503H95.6411H110.077V31.7865H88.7774Z" fill="white"/>
<path d="M3.00873 52.9163H1.78043L0 48.3384H1.11827L2.39459 51.8594L3.66489 48.3384H4.78117L3.00873 52.9163Z" fill="white"/>
<path d="M9.08639 52.9163H5.82959V48.3384H9.08639V49.1962H6.80983V50.1636H9.03837V51.0214H6.80983V52.0584H9.08639V52.9163Z" fill="white"/>
<path d="M14.1991 52.9164H13.0728L12.1706 51.2902H11.4524V52.9164H10.4722V48.3385H12.6247C12.831 48.3278 13.0373 48.3588 13.2312 48.4297C13.4251 48.5005 13.6026 48.6096 13.753 48.7505C13.8921 48.8897 14.001 49.0559 14.073 49.2387C14.1449 49.4215 14.1783 49.6171 14.1711 49.8133C14.1864 50.1431 14.082 50.4674 13.877 50.7269C13.6962 50.9513 13.4445 51.1084 13.1628 51.1728L14.1991 52.9164ZM12.4807 50.4324C12.6614 50.4392 12.8383 50.3789 12.9768 50.2632C13.038 50.2052 13.0868 50.1354 13.1201 50.0581C13.1534 49.9807 13.1706 49.8975 13.1706 49.8133C13.1706 49.7292 13.1534 49.646 13.1201 49.5686C13.0868 49.4913 13.038 49.4215 12.9768 49.3635C12.8381 49.2483 12.6612 49.1887 12.4807 49.1963H11.4524V50.4324H12.4807Z" fill="white"/>
<path d="M19.6489 52.9163H18.7047L16.5042 49.9307V52.9163H15.5239V48.3384H16.5242L18.6547 51.2145V48.3384H19.6349L19.6489 52.9163Z" fill="white"/>
<path d="M25.4726 52.9163H24.3543L24.0702 52.14H22.0977L21.8077 52.9163H20.6914L22.4698 48.3384H23.6981L25.4726 52.9163ZM23.8022 51.2762L23.084 49.3057L22.3678 51.2762H23.8022Z" fill="white"/>
<path d="M28.5127 52.998C27.8649 53.017 27.236 52.7793 26.7643 52.3371C26.3154 51.8817 26.064 51.2693 26.064 50.6314C26.064 49.9935 26.3154 49.3811 26.7643 48.9256C26.9975 48.706 27.272 48.5344 27.572 48.4206C27.8721 48.3069 28.1918 48.2532 28.5127 48.2628C28.9076 48.2474 29.2986 48.3444 29.6399 48.5426C29.9812 48.7408 30.2585 49.0318 30.4392 49.3814L29.597 49.7934C29.4931 49.598 29.3392 49.4332 29.1509 49.3157C28.9626 49.1881 28.7406 49.1188 28.5127 49.1167C28.3199 49.1114 28.1282 49.1466 27.95 49.22C27.7718 49.2934 27.6111 49.4033 27.4785 49.5427C27.2168 49.8413 27.0726 50.2242 27.0726 50.6204C27.0726 51.0167 27.2168 51.3996 27.4785 51.6982C27.6108 51.838 27.7714 51.9482 27.9497 52.0216C28.128 52.095 28.3199 52.13 28.5127 52.1242C28.739 52.1255 28.9608 52.0612 29.1509 51.9391C29.3406 51.8275 29.4967 51.6673 29.603 51.4753L30.4452 51.8734C30.2624 52.2231 29.984 52.5142 29.6421 52.7132C29.3002 52.9122 28.9086 53.0109 28.5127 52.998Z" fill="white"/>
<path d="M35.2703 52.4844C34.9183 52.8268 34.4021 52.998 33.722 52.998C33.0418 52.998 32.5217 52.8268 32.1736 52.4805C31.994 52.2968 31.8544 52.0783 31.7635 51.8386C31.6727 51.5989 31.6325 51.3431 31.6455 51.0872V48.3345H32.6457V51.0514C32.6381 51.1945 32.6591 51.3376 32.7075 51.4726C32.7559 51.6075 32.8308 51.7316 32.9278 51.8375C33.0335 51.9389 33.1592 52.0172 33.2969 52.0676C33.4347 52.1179 33.5815 52.1393 33.728 52.1302C33.8745 52.1401 34.0216 52.1192 34.1594 52.0688C34.2973 52.0184 34.423 51.9396 34.5282 51.8375C34.6248 51.7314 34.6993 51.6073 34.7473 51.4724C34.7954 51.3374 34.8161 51.1943 34.8082 51.0514V48.3345H35.8085V51.0772C35.8215 51.3361 35.7804 51.5948 35.6878 51.837C35.5952 52.0792 35.453 52.2997 35.2703 52.4844Z" fill="white"/>
<path d="M40.2475 52.9163H37.3228V48.3384H38.303V52.0584H40.2475V52.9163Z" fill="white"/>
<path d="M45.8432 52.9163H44.7269L44.4428 52.14H42.4704L42.1803 52.9163H41.062L42.8424 48.3384H44.0707L45.8432 52.9163ZM44.1748 51.2822L43.4566 49.3117L42.7384 51.2822H44.1748Z" fill="white"/>
<path d="M50.618 52.9164H49.4918L48.5895 51.2902H47.8714V52.9164H46.8911V48.3385H49.0436C49.2499 48.3278 49.4562 48.3588 49.6501 48.4297C49.844 48.5005 50.0215 48.6096 50.1719 48.7505C50.3111 48.8897 50.42 49.0559 50.4919 49.2387C50.5638 49.4215 50.5972 49.6171 50.59 49.8133C50.6054 50.1431 50.501 50.4674 50.2959 50.7269C50.1155 50.9517 49.8637 51.1089 49.5818 51.1728L50.618 52.9164ZM48.8996 50.4324C49.0804 50.4392 49.2572 50.3789 49.3957 50.2632C49.457 50.2052 49.5057 50.1354 49.5391 50.0581C49.5724 49.9807 49.5896 49.8975 49.5896 49.8133C49.5896 49.7292 49.5724 49.646 49.5391 49.5686C49.5057 49.4913 49.457 49.4215 49.3957 49.3635C49.257 49.2483 49.0801 49.1887 48.8996 49.1963H47.8714V50.4324H48.8996Z" fill="white"/>
<path d="M56.8336 52.9165H54.335V48.3386H56.7576C56.9347 48.328 57.1122 48.3524 57.2797 48.4105C57.4473 48.4686 57.6016 48.5591 57.7338 48.6769C57.8461 48.7836 57.9351 48.9122 57.995 49.0547C58.0549 49.1972 58.0845 49.3505 58.0819 49.505C58.0906 49.7579 58.0099 50.0058 57.8538 50.2056C57.7885 50.1788 57.7173 50.1692 57.6472 50.1777C57.5771 50.1862 57.5103 50.2124 57.4533 50.254C57.3963 50.2955 57.351 50.351 57.3218 50.415C57.2925 50.479 57.2803 50.5494 57.2863 50.6194C57.2922 50.6894 57.3162 50.7568 57.3559 50.815C57.3956 50.8731 57.4496 50.9202 57.5128 50.9516C57.5761 50.983 57.6463 50.9977 57.7169 50.9942C57.7875 50.9908 57.856 50.9694 57.9158 50.9321C58.0853 51.1448 58.1757 51.4091 58.1719 51.6805C58.1774 51.8442 58.149 52.0074 58.0885 52.1598C58.0279 52.3121 57.9364 52.4505 57.8198 52.5662C57.6876 52.6876 57.5321 52.7813 57.3626 52.8415C57.1931 52.9017 57.0132 52.9272 56.8336 52.9165ZM56.5435 50.1717C56.616 50.1767 56.6888 50.1671 56.7576 50.1435C56.8263 50.1199 56.8896 50.0828 56.9436 50.0344C56.9922 49.9885 57.0304 49.9328 57.0556 49.871C57.0807 49.8092 57.0924 49.7427 57.0896 49.6761C57.0916 49.6091 57.0795 49.5424 57.054 49.4804C57.0285 49.4183 56.9902 49.3623 56.9416 49.3159C56.8353 49.2195 56.6952 49.1687 56.5515 49.1745H55.3232V50.1697L56.5435 50.1717ZM56.5775 52.0726C56.7349 52.0815 56.89 52.0311 57.0116 51.9313C57.0668 51.8812 57.1098 51.8194 57.1375 51.7505C57.1653 51.6815 57.1769 51.6072 57.1717 51.5332C57.1729 51.4622 57.1594 51.3918 57.1318 51.3263C57.1043 51.2609 57.0633 51.2019 57.0116 51.153C56.9535 51.0994 56.8851 51.058 56.8105 51.0313C56.7359 51.0046 56.6566 50.9932 56.5775 50.9977H55.3152V52.0726H56.5775Z" fill="white"/>
<path d="M63.1556 52.4844C62.8055 52.8268 62.2874 52.998 61.6072 52.998C60.927 52.998 60.4069 52.8268 60.0588 52.4805C59.8792 52.2968 59.7396 52.0783 59.6488 51.8386C59.5579 51.5989 59.5177 51.3431 59.5307 51.0872V48.3345H60.531V51.0514C60.5233 51.1945 60.5444 51.3376 60.5928 51.4726C60.6412 51.6075 60.7161 51.7316 60.813 51.8375C61.0361 52.0271 61.3199 52.1312 61.6132 52.1312C61.9066 52.1312 62.1903 52.0271 62.4134 51.8375C62.5094 51.7311 62.5833 51.6069 62.6311 51.472C62.6788 51.3371 62.6993 51.1942 62.6915 51.0514V48.3345H63.6917V51.0772C63.705 51.3359 63.6642 51.5946 63.572 51.8368C63.4797 52.079 63.3379 52.2995 63.1556 52.4844Z" fill="white"/>
<path d="M66.1877 52.9163H65.2114V48.3384H66.1917L66.1877 52.9163Z" fill="white"/>
<path d="M70.6449 52.9163H67.7202V48.3384H68.6985V52.0584H70.6449V52.9163Z" fill="white"/>
<path d="M73.7637 52.9163H71.9492V48.3384H73.7637C74.4115 48.3112 75.0442 48.5378 75.5261 48.9693C75.9582 49.4146 76.1997 50.0094 76.1997 50.6283C76.1997 51.2472 75.9582 51.842 75.5261 52.2873C75.0441 52.7185 74.4113 52.9444 73.7637 52.9163ZM73.7637 52.0584C73.9581 52.0679 74.1523 52.0361 74.3334 51.965C74.5145 51.894 74.6783 51.7853 74.8139 51.6464C75.0773 51.3742 75.2212 51.0091 75.214 50.6313C75.2295 50.2509 75.0936 49.8797 74.8359 49.5983C74.6971 49.4611 74.5307 49.3547 74.3476 49.2861C74.1645 49.2175 73.9689 49.1882 73.7737 49.2002H72.9375V52.0624L73.7637 52.0584Z" fill="white"/>
<path d="M82.8339 52.9163H79.9092V48.3384H80.8894V52.0584H82.8339V52.9163Z" fill="white"/>
<path d="M85.1184 52.9163H84.1382V48.3384H85.1184V52.9163Z" fill="white"/>
<path d="M91.6386 52.9163H90.6524V49.7098L89.3541 52.9163H88.926L87.6297 49.7098V52.9163H86.6494V48.3384H88.0178L89.134 51.105L90.2523 48.3384H91.6326L91.6386 52.9163Z" fill="white"/>
<path d="M94.1492 52.9163H93.1689V48.3384H94.1492V52.9163Z" fill="white"/>
<path d="M97.73 52.9163H96.7438V49.1962H95.3975V48.3384H99.0684V49.1962H97.73V52.9163Z" fill="white"/>
<path d="M103.573 52.9163H100.316V48.3384H103.573V49.1962H101.297V50.1636H103.525V51.0214H101.297V52.0584H103.573V52.9163Z" fill="white"/>
<path d="M106.774 52.9163H104.959V48.3384H106.774C107.422 48.3109 108.055 48.5374 108.536 48.9694C108.971 49.4132 109.215 50.0085 109.215 50.6284C109.215 51.2482 108.971 51.8435 108.536 52.2873C108.054 52.7178 107.421 52.9436 106.774 52.9163ZM106.774 52.0585C106.969 52.0679 107.163 52.036 107.345 51.965C107.526 51.8939 107.69 51.7854 107.826 51.6465C108.09 51.3742 108.233 51.0091 108.226 50.6314C108.241 50.2507 108.104 49.8796 107.846 49.5983C107.707 49.4612 107.541 49.3548 107.358 49.2862C107.175 49.2176 106.979 49.1883 106.784 49.2003H105.95V52.0624L106.774 52.0585Z" fill="white"/>
</g>
<defs>
<clipPath id="clip0_1_244">
<rect width="110.077" height="53" fill="white"/>
</clipPath>
</defs>
</svg>
